<?xml version="1.0" encoding="UTF-8"?>
<svg style="background:white;padding-top:10px;" id="Layer_2" data-name="Layer 2" xmlns="http://www.w3.org/2000/svg" viewBox="0 0 362.37 616.45">
  <defs>
    <style>
      .cls-1 {
        fill: #fff;
        stroke: #000;
        stroke-miterlimit: 10;
        stroke-width: 4px;
      }

      .cls-2 {
        fill: #000;
        stroke-width: 0px;
      }
      #_2nd_crystal, #rainbow {fill:#fff;}
    </style>
  </defs>
  <g id="_2nd_crystal" data-name="2nd crystal">
    <polygon class="cls-1" points="192.22 65.34 133.46 138.63 150.52 155.87 186.33 111.41 192.22 65.34"/>
    <polygon class="cls-1" points="196.62 142.7 238.21 139.31 195.91 64.2 186.33 111.41 196.62 142.7"/>
    <polygon class="cls-1" points="168.22 191.68 196.62 142.7 186.33 111.41 150.52 155.87 168.22 191.68"/>
    <polygon class="cls-1" points="197.85 318.45 239.11 142.8 196.62 142.7 168.22 191.68 168.22 306.11 181.8 321.34 197.85 318.45"/>
    <polygon class="cls-1" points="251.08 229.58 213.92 253.99 224.61 280.17 246.42 273.59 270.76 271.67 251.08 229.58"/>
    <polygon class="cls-1" points="231.19 316.4 232.32 315.13 269.29 275.19 246.42 273.59 224.61 280.17 210.2 320.51 231.19 316.4"/>
    <polygon class="cls-1" points="171.92 333.27 181.8 321.34 168.22 306.11 162.1 305.26 156.69 306.52 143.93 325.45 171.92 333.27"/>
    <polygon class="cls-1" points="138.99 318.45 147.64 318.87 156.69 306.52 162.04 305.28 144.76 221.31 113.83 182.47 95.52 247.35 126.23 287.99 138.99 318.45"/>
    <polygon class="cls-1" points="117.59 227.9 104.91 214.8 96.19 246.42 106.48 246.83 117.59 227.9"/>
    <polygon class="cls-1" points="106.48 246.83 147.64 318.87 156.69 306.52 162.04 305.28 144.76 221.31 117.59 227.9 106.48 246.83"/>
    <polygon class="cls-1" points="141.94 205.73 133.36 143.06 150.52 155.87 168.22 191.68 168.22 306.11 162.04 305.28 150.28 212.66 141.94 205.73"/>
    <polygon class="cls-1" points="122.86 189.5 149.7 212.26 144.76 221.31 122.86 189.5"/>
    <polygon class="cls-1" points="206.53 319.37 199.91 311.46 213.11 253.99 222.77 279.43 206.53 319.37"/>
    <polygon class="cls-1" points="263.17 255.36 274.82 236.96 273.18 180.98 223.03 211.29 213.24 253.59 250.81 229.85 263.17 255.36"/>
    <polygon class="cls-1" points="126.45 289.53 112.65 306.52 130.35 313.51 135.42 309.94 126.45 289.53"/>
    <polygon class="cls-1" points="194.56 317.22 197.03 293.35 182.77 272.38 174.8 313.51 181.8 321.34 194.56 317.22"/>
    <polygon class="cls-1" points="179.05 273.35 168.25 285.76 168.22 306.11 174.8 313.51 179.05 273.35"/>
    <polygon class="cls-1" points="266.18 249.72 262.89 232.84 274 218.43 273.2 180.91 236.3 222.8 250.8 228.87 263.06 255.25 266.18 249.72"/>
    <polyline class="cls-1" points="250.97 228.66 262.89 232.84 235.72 223.37 224.23 211.27 273.05 179.81 274 218.43 274.82 236.96 266.18 249.72"/>
    <line class="cls-1" x1="235.57" y1="223.25" x2="226.79" y2="244.83"/>
    <polygon class="cls-1" points="244.18 319.79 254.23 312.51 254.4 306.56 250.13 299.78 247.6 299.58 232.32 315.13 244.18 319.79"/>
    <line class="cls-1" x1="254.4" y1="306.56" x2="232.32" y2="315.13"/>
    <line class="cls-1" x1="168.17" y1="306.23" x2="171.92" y2="333.27"/>
  </g>
  <g id="rainbow">
    <polygon class="cls-2" points="245.49 179.21 326.52 98.18 339.5 118.33 245.49 179.21"/>
    <polygon class="cls-2" points="95.06 272.33 42.24 319.79 32.39 298.3 95.06 272.33"/>
    <polygon class="cls-2" points="112.97 155.93 49.4 61.02 35.97 82.51 112.97 155.93"/>
    <polygon class="cls-2" points="281.3 256.22 339.5 310.83 354.72 292.03 281.3 256.22"/>
    <polygon class="cls-2" points="156.68 340.59 116.61 409.62 138.37 420.2 156.68 340.59"/>
    <polygon class="cls-2" points="295.63 201.6 332.34 201.6 331.44 181.9 295.63 201.6"/>
    <polygon class="cls-2" points="196.5 354.38 190.25 390.56 209.81 393.03 196.5 354.38"/>
    <polygon class="cls-2" points="257.76 123.61 292.3 111.17 284.78 92.94 257.76 123.61"/>
    <polygon class="cls-2" points="84.32 193.54 40.44 191.75 40.44 210.55 84.32 193.54"/>
    <polygon class="cls-2" points="89.24 229.93 13.36 260.64 6.67 235.25 89.24 229.93"/>
    <polygon class="cls-2" points="78.05 159.51 35.07 120.12 27.91 146.98 78.05 159.51"/>
    <polygon class="cls-2" points="301.8 232.65 357.63 258.82 355.88 229.17 301.8 232.65"/>
    <polygon class="cls-2" points="243.71 93.43 283.78 16.58 304.49 37.41 243.71 93.43"/>
    <polygon class="cls-2" points="231.13 332.45 281.35 403.09 253.38 412.06 231.13 332.45"/>
    <polygon class="cls-2" points="154.78 82.53 110.07 8.28 138.64 1.46 154.78 82.53"/>
    <polygon class="cls-2" points="125.91 111.02 108.01 65.36 95.47 77.89 125.91 111.02"/>
    <polygon class="cls-2" points="111.23 329.34 74.16 361.45 90.16 369.09 111.23 329.34"/>
    <polygon class="cls-2" points="271.45 299.19 299.21 326.06 283.99 335.01 271.45 299.19"/>
    <polygon class="cls-2" points="186.24 52.59 171.34 16.95 188.86 14.73 186.24 52.59"/>
    <polygon class="cls-2" points="217.99 63.44 237.21 0 248.75 3.84 217.99 63.44"/>
    <line class="cls-2" x1="353.36" y1="229.07" x2="354.82" y2="256.83"/>
  </g>
  <g id="text">
    <g>
      <path class="cls-2" d="M7.19,457.58h21.95c12.92,0,23.52,4.49,23.52,18.97s-10.59,20.03-23.52,20.03h-8.17v21.93H7.19v-60.93ZM28.02,485.65c7.25,0,11.14-3.1,11.14-9.09s-3.89-8.04-11.14-8.04h-7.05v17.13h7.05ZM26.62,492.95l9.53-8.81,19.45,34.37h-15.42l-13.56-25.56Z"/>
      <path class="cls-2" d="M60.48,505.65c0-9.77,7.78-15.06,26.12-17-.28-4.06-2.3-6.71-7.33-6.71-3.89,0-7.77,1.64-12.27,4.19l-4.88-9.02c5.89-3.6,12.52-6.1,19.81-6.1,11.86,0,18.43,6.77,18.43,20.99v26.52h-11.21l-.99-4.75h-.34c-3.9,3.43-8.28,5.87-13.49,5.87-8.46,0-13.83-6.17-13.83-13.99ZM86.6,505.04v-8.1c-9.77,1.32-12.96,4.11-12.96,7.62,0,2.99,2.06,4.45,5.32,4.45s5.2-1.54,7.64-3.97Z"/>
      <path class="cls-2" d="M110.81,458.16c0-4.21,3.34-7.18,7.95-7.18s7.95,2.97,7.95,7.18-3.34,7.18-7.95,7.18-7.95-3-7.95-7.18ZM111.88,472.13h13.74v46.38h-13.74v-46.38Z"/>
      <path class="cls-2" d="M137.68,472.13h11.21l.99,5.87h.34c3.9-3.75,8.58-6.99,14.9-6.99,10.09,0,14.39,7.12,14.39,18.71v28.79h-13.74v-27.03c0-6.67-1.79-8.76-5.76-8.76-3.45,0-5.56,1.61-8.59,4.51v31.29h-13.74v-46.38Z"/>
      <path class="cls-2" d="M203.39,513.56h-.34l-1.14,4.95h-10.75v-65.5h13.74v16l-.34,7.13c3.52-3.16,7.9-5.13,12.27-5.13,11.23,0,18.18,9.28,18.18,23.5,0,15.99-9.47,25.12-19.51,25.12-4.15,0-8.42-2.09-12.11-6.07ZM220.93,494.74c0-8.33-2.57-12.49-8.06-12.49-2.83,0-5.29,1.26-7.97,4.16v19.05c2.46,2.18,5.08,2.94,7.4,2.94,4.79,0,8.63-4.04,8.63-13.65Z"/>
      <path class="cls-2" d="M242.03,495.34c0-15.42,10.86-24.33,22.59-24.33s22.59,8.91,22.59,24.33-10.86,24.3-22.59,24.3-22.59-8.91-22.59-24.3ZM273.14,495.34c0-8.03-2.83-13.24-8.51-13.24s-8.51,5.21-8.51,13.24,2.82,13.21,8.51,13.21,8.51-5.18,8.51-13.21Z"/>
      <path class="cls-2" d="M292.06,472.13h13.66l4.44,21.48c.81,4.58,1.32,9.08,2.1,13.78h.37c.81-4.7,1.63-9.36,2.75-13.78l5.06-21.48h11.94l5.21,21.48c1.12,4.58,1.94,9.08,2.9,13.78h.37c.81-4.7,1.32-9.21,2.13-13.78l4.41-21.48h12.7l-11.08,46.38h-16.1l-4.25-18.54c-.85-4.3-1.63-8.57-2.47-13.56h-.37c-.81,4.99-1.47,9.29-2.35,13.59l-4.07,18.51h-15.72l-11.61-46.38Z"/>
      <path class="cls-2" d="M86.8,528.59h21.95c12.92,0,23.52,4.49,23.52,18.97s-10.59,20.03-23.52,20.03h-8.17v21.93h-13.78v-60.93ZM107.62,556.66c7.25,0,11.14-3.1,11.14-9.09s-3.89-8.04-11.14-8.04h-7.05v17.13h7.05ZM106.22,563.97l9.53-8.81,19.45,34.37h-15.42l-13.56-25.56Z"/>
      <path class="cls-2" d="M139.34,566.35c0-15.42,10.86-24.33,22.59-24.33s22.59,8.91,22.59,24.33-10.86,24.3-22.59,24.3-22.59-8.91-22.59-24.3ZM170.44,566.35c0-8.03-2.82-13.24-8.51-13.24s-8.51,5.21-8.51,13.24,2.82,13.21,8.51,13.21,8.51-5.18,8.51-13.21Z"/>
      <path class="cls-2" d="M191.22,566.35c0-15.42,11.35-24.33,24.17-24.33,5.71,0,10.1,2.03,13.55,4.99l-6.49,8.83c-2.22-1.88-4.08-2.74-6.29-2.74-6.61,0-10.85,5.21-10.85,13.24s4.42,13.21,10.39,13.21c3.05,0,5.96-1.51,8.37-3.42l5.38,8.99c-4.51,3.98-10.26,5.52-15.29,5.52-12.95,0-22.93-8.91-22.93-24.3Z"/>
      <path class="cls-2" d="M237.58,524.03h13.44v37.52h.34l14.71-18.41h14.92l-16.25,19.12,17.48,27.27h-14.89l-10.44-18.09-5.88,6.67v11.42h-13.44v-65.5Z"/>
    </g>
  </g>
</svg>